<?xml version="1.0" encoding="utf-8"?>
<!-- Generator: Adobe Illustrator 18.1.1, SVG Export Plug-In . SVG Version: 6.00 Build 0)  -->
<svg version="1.1" id="Layer_1" xmlns="http://www.w3.org/2000/svg" xmlns:xlink="http://www.w3.org/1999/xlink" x="0px" y="0px"
	 viewBox="0 0 300 300" enable-background="new 0 0 300 300" xml:space="preserve">
<g>
	<g>
		<path fill="#414042" d="M156.7,239.8c-51.6,0-93.5-41.9-93.5-93.5c0-51.6,41.9-93.5,93.5-93.5s93.5,42,93.5,93.5
			C250.2,197.9,208.2,239.8,156.7,239.8z M156.7,88.7c-31.8,0-57.7,25.9-57.7,57.7c0,31.8,25.9,57.7,57.7,57.7s57.7-25.9,57.7-57.7
			C214.3,114.5,188.5,88.7,156.7,88.7z"/>
	</g>
	<g>
		<rect x="130.8" y="18.9" fill="#414042" width="47.5" height="38.9"/>
	</g>
	<g>
		<rect x="132.9" y="234.9" fill="#414042" width="47.5" height="38.9"/>
	</g>
	<g>
		<rect x="27.1" y="129.1" fill="#414042" width="47.5" height="38.9"/>
	</g>
	<g>
		<rect x="234.4" y="126.9" fill="#414042" width="47.5" height="38.9"/>
	</g>
	<g>
		<polygon fill="#414042" points="233.2,254.6 199.6,221 227,193.5 260.6,227.1 		"/>
	</g>
	<g>
		<polygon fill="#414042" points="82,103.5 48.4,69.9 75.9,42.4 109.5,76 		"/>
	</g>
	<g>
		<polygon fill="#414042" points="229.2,101.3 262.8,67.7 235.3,40.2 201.7,73.8 		"/>
	</g>
	<g>
		<polygon fill="#414042" points="78,252.5 111.6,218.9 84.1,191.4 50.6,225 		"/>
	</g>
</g>
</svg>
